REM DIRINDEX 1\2\6,1\2\7,1\2\8,1\3\9,1\3\10,1\3\11,1\4\12,1\4\13,1\4\14,1\5\15,1\5\16,1\5\17,1\5\18
REM DIRNAME cjc019,folder01,folder02,folder03,folder04,folder05,folder06,folder07,folder08,folder09,folder10,folder11,folder12,folder13,folder14,folder15,folder16,folder17
TITLE ""
FILE "2Q_t_1039-1056.mp3" MP3
  TRACK 01 AUDIO
    TITLE "13:cjc019_4140"
    INDEX 01 00:00:00
  TRACK 02 AUDIO
    TITLE "0:"
    INDEX 01 00:01:07
  TRACK 03 AUDIO
    TITLE "14:cjc019_4141"
    INDEX 01 00:01:73
  TRACK 04 AUDIO
    TITLE "0:"
    INDEX 01 00:04:01
  TRACK 05 AUDIO
    TITLE "13:cjc019_4142"
    INDEX 01 00:04:54
  TRACK 06 AUDIO
    TITLE "0:"
    INDEX 01 00:05:73
  TRACK 07 AUDIO
    TITLE "14:cjc019_4143"
    INDEX 01 00:06:61
  TRACK 08 AUDIO
    TITLE "0:"
    INDEX 01 00:08:01
  TRACK 09 AUDIO
    TITLE "13:cjc019_4144"
    INDEX 01 00:08:58
  TRACK 10 AUDIO
    TITLE "0:"
    INDEX 01 00:10:06
  TRACK 11 AUDIO
    TITLE "14:cjc019_4145"
    INDEX 01 00:10:59
  TRACK 12 AUDIO
    TITLE "0:"
    INDEX 01 00:12:16
  TRACK 13 AUDIO
    TITLE "13:cjc019_4146"
    INDEX 01 00:12:73
  TRACK 14 AUDIO
    TITLE "0:"
    INDEX 01 00:14:13
  TRACK 15 AUDIO
    TITLE "14:cjc019_4147"
    INDEX 01 00:14:72
  TRACK 16 AUDIO
    TITLE "0:"
    INDEX 01 00:17:23
  TRACK 17 AUDIO
    TITLE "13:cjc019_4148"
    INDEX 01 00:18:01
  TRACK 18 AUDIO
    TITLE "0:"
    INDEX 01 00:19:32
  TRACK 19 AUDIO
    TITLE "14:cjc019_4149"
    INDEX 01 00:20:14
  TRACK 20 AUDIO
    TITLE "0:"
    INDEX 01 00:21:31
  TRACK 21 AUDIO
    TITLE "13:cjc019_4150"
    INDEX 01 00:22:13
  TRACK 22 AUDIO
    TITLE "0:"
    INDEX 01 00:23:24
  TRACK 23 AUDIO
    TITLE "14:cjc019_4151"
    INDEX 01 00:24:06
  TRACK 24 AUDIO
    TITLE "0:"
    INDEX 01 00:26:44
  TRACK 25 AUDIO
    TITLE "13:cjc019_4152"
    INDEX 01 00:27:28
  TRACK 26 AUDIO
    TITLE "0:"
    INDEX 01 00:28:35
  TRACK 27 AUDIO
    TITLE "14:cjc019_4153"
    INDEX 01 00:29:15
  TRACK 28 AUDIO
    TITLE "0:"
    INDEX 01 00:32:62
  TRACK 29 AUDIO
    TITLE "13:cjc019_4154"
    INDEX 01 00:33:38
  TRACK 30 AUDIO
    TITLE "0:"
    INDEX 01 00:34:59
  TRACK 31 AUDIO
    TITLE "14:cjc019_4155"
    INDEX 01 00:35:45
  TRACK 32 AUDIO
    TITLE "0:"
    INDEX 01 00:39:23
  TRACK 33 AUDIO
    TITLE "13:cjc019_4156"
    INDEX 01 00:40:03
  TRACK 34 AUDIO
    TITLE "0:"
    INDEX 01 00:41:26
  TRACK 35 AUDIO
    TITLE "14:cjc019_4157"
    INDEX 01 00:42:08
  TRACK 36 AUDIO
    TITLE "0:"
    INDEX 01 00:44:36
  TRACK 37 AUDIO
    TITLE "13:cjc019_4158"
    INDEX 01 00:45:14
  TRACK 38 AUDIO
    TITLE "0:"
    INDEX 01 00:46:25
  TRACK 39 AUDIO
    TITLE "14:cjc019_4159"
    INDEX 01 00:47:05
  TRACK 40 AUDIO
    TITLE "0:"
    INDEX 01 00:48:53
  TRACK 41 AUDIO
    TITLE "13:cjc019_4160"
    INDEX 01 00:49:33
  TRACK 42 AUDIO
    TITLE "0:"
    INDEX 01 00:50:52
  TRACK 43 AUDIO
    TITLE "14:cjc019_4161"
    INDEX 01 00:51:34
  TRACK 44 AUDIO
    TITLE "0:"
    INDEX 01 00:53:68
  TRACK 45 AUDIO
    TITLE "13:cjc019_4162"
    INDEX 01 00:54:42
  TRACK 46 AUDIO
    TITLE "0:"
    INDEX 01 00:56:02
  TRACK 47 AUDIO
    TITLE "14:cjc019_4163"
    INDEX 01 00:56:61
  TRACK 48 AUDIO
    TITLE "0:"
    INDEX 01 00:59:04
  TRACK 49 AUDIO
    TITLE "13:cjc019_4164"
    INDEX 01 00:59:53
  TRACK 50 AUDIO
    TITLE "0:"
    INDEX 01 01:01:15
  TRACK 51 AUDIO
    TITLE "14:cjc019_4165"
    INDEX 01 01:01:70
  TRACK 52 AUDIO
    TITLE "0:"
    INDEX 01 01:04:17
  TRACK 53 AUDIO
    TITLE "13:cjc019_4166"
    INDEX 01 01:04:72
  TRACK 54 AUDIO
    TITLE "0:"
    INDEX 01 01:06:30
  TRACK 55 AUDIO
    TITLE "14:cjc019_4167"
    INDEX 01 01:07:17
  TRACK 56 AUDIO
    TITLE "0:"
    INDEX 01 01:09:40
  TRACK 57 AUDIO
    TITLE "13:cjc019_4168"
    INDEX 01 01:10:22
  TRACK 58 AUDIO
    TITLE "0:"
    INDEX 01 01:11:70
  TRACK 59 AUDIO
    TITLE "14:cjc019_4169"
    INDEX 01 01:12:56
  TRACK 60 AUDIO
    TITLE "0:"
    INDEX 01 01:15:21
  TRACK 61 AUDIO
    TITLE "13:cjc019_4170"
    INDEX 01 01:16:01
  TRACK 62 AUDIO
    TITLE "0:"
    INDEX 01 01:17:22
  TRACK 63 AUDIO
    TITLE "14:cjc019_4171"
    INDEX 01 01:18:06
  TRACK 64 AUDIO
    TITLE "0:"
    INDEX 01 01:19:23
  TRACK 65 AUDIO
    TITLE "13:cjc019_4172"
    INDEX 01 01:19:74
  TRACK 66 AUDIO
    TITLE "0:"
    INDEX 01 01:21:16
  TRACK 67 AUDIO
    TITLE "14:cjc019_4173"
    INDEX 01 01:22:01
  TRACK 68 AUDIO
    TITLE "0:"
    INDEX 01 01:24:14
  TRACK 69 AUDIO
    TITLE "13:cjc019_4174"
    INDEX 01 01:24:63
  TRACK 70 AUDIO
    TITLE "0:"
    INDEX 01 01:25:66
  TRACK 71 AUDIO
    TITLE "14:cjc019_4175"
    INDEX 01 01:26:50
  TRACK 72 AUDIO
    TITLE "0:"
    INDEX 01 01:27:53
